<?xml version="1.0" encoding="UTF-8"?>
<svg xmlns="http://www.w3.org/2000/svg" xmlns:xlink="http://www.w3.org/1999/xlink" width="103px" height="128px" viewBox="0 0 103 128" version="1.1">
<g id="surface1">
<path style=" stroke:none;fill-rule:nonzero;fill:rgb(0%,0%,0%);fill-opacity:1;" d="M 80.246094 0.175781 C 79.894531 0.308594 79.53125 0.609375 79.351562 0.917969 C 79.273438 1.046875 79.140625 1.429688 79.0625 1.773438 C 77.847656 6.78125 74.390625 10.816406 69.628906 12.789062 C 68.441406 13.285156 67.15625 13.628906 65.675781 13.839844 C 64.636719 14 62.390625 13.980469 61.300781 13.8125 C 59.59375 13.554688 58.105469 13.085938 56.578125 12.34375 C 53.476562 10.828125 50.96875 8.347656 49.394531 5.242188 C 48.878906 4.234375 48.503906 3.234375 48.109375 1.804688 C 47.933594 1.179688 47.488281 0.714844 46.867188 0.535156 C 46.421875 0.398438 46.167969 0.433594 45.183594 0.734375 C 40.179688 2.25 35.457031 4.304688 30.949219 6.9375 C 30.371094 7.28125 29.796875 7.660156 29.664062 7.78125 C 29.335938 8.109375 29.183594 8.460938 29.164062 8.945312 C 29.132812 9.46875 29.203125 9.671875 29.714844 10.511719 C 30.914062 12.488281 31.636719 14.574219 31.929688 16.90625 C 32.039062 17.78125 32.019531 19.972656 31.898438 20.824219 C 31.75 21.820312 31.546875 22.730469 31.296875 23.519531 C 28.867188 31.105469 21.296875 35.703125 13.445312 34.371094 C 11.839844 34.101562 10.546875 33.667969 8.925781 32.867188 L 7.824219 32.320312 L 7.371094 32.320312 C 6.992188 32.320312 6.871094 32.34375 6.605469 32.480469 C 6.089844 32.726562 5.886719 33.003906 5.207031 34.363281 C 3.085938 38.59375 1.394531 43.109375 0.277344 47.515625 C 0.0859375 48.289062 0.0507812 48.507812 0.0664062 48.835938 C 0.101562 49.300781 0.277344 49.691406 0.605469 49.996094 C 0.902344 50.28125 1.179688 50.40625 1.835938 50.554688 C 4 51.03125 6.300781 52.148438 8.152344 53.609375 C 8.839844 54.152344 10.054688 55.359375 10.585938 56.019531 C 11.066406 56.621094 11.824219 57.75 12.191406 58.414062 C 14.101562 61.875 14.613281 66.058594 13.613281 69.96875 C 12.664062 73.6875 10.300781 77.019531 7.089844 79.15625 C 5.785156 80.023438 4.648438 80.574219 3.113281 81.082031 C 2.597656 81.25 2.117188 81.421875 2.039062 81.464844 C 1.796875 81.589844 1.472656 81.933594 1.3125 82.242188 C 1.179688 82.496094 1.15625 82.597656 1.164062 83.015625 C 1.164062 83.433594 1.203125 83.601562 1.433594 84.3125 C 2.921875 88.796875 4.832031 93.050781 7.117188 96.984375 C 7.800781 98.167969 8.164062 98.460938 8.964844 98.503906 C 9.472656 98.53125 9.667969 98.46875 10.367188 98.046875 C 12.332031 96.863281 14.445312 96.125 16.699219 95.832031 C 17.707031 95.703125 19.660156 95.703125 20.648438 95.832031 C 23.050781 96.152344 25.257812 96.945312 27.242188 98.210938 C 29.105469 99.398438 31.003906 101.316406 32.171875 103.191406 C 33.183594 104.820312 33.902344 106.632812 34.257812 108.476562 C 34.488281 109.683594 34.539062 110.253906 34.539062 111.644531 C 34.535156 113.105469 34.433594 113.976562 34.121094 115.28125 C 33.8125 116.582031 33.242188 118.0625 32.625 119.152344 C 32.457031 119.457031 32.273438 119.832031 32.222656 119.992188 C 32.039062 120.554688 32.242188 121.332031 32.699219 121.773438 C 33.242188 122.296875 37.476562 124.308594 40.476562 125.464844 C 43.507812 126.628906 47.769531 127.933594 48.566406 127.933594 C 49.042969 127.933594 49.476562 127.761719 49.792969 127.457031 C 50.117188 127.144531 50.25 126.871094 50.394531 126.257812 C 51.554688 121.277344 55.222656 117.054688 60.042969 115.144531 C 61.878906 114.414062 63.757812 114.066406 65.871094 114.066406 C 68.542969 114.066406 70.777344 114.605469 73.136719 115.816406 C 74.726562 116.621094 75.96875 117.546875 77.253906 118.863281 C 79.113281 120.769531 80.390625 122.949219 81.160156 125.539062 C 81.351562 126.183594 81.453125 126.382812 81.757812 126.675781 C 82.113281 127.023438 82.476562 127.164062 82.988281 127.164062 C 83.375 127.164062 83.570312 127.109375 85.191406 126.570312 C 88.71875 125.390625 91.425781 124.261719 94.542969 122.667969 C 96.390625 121.722656 97.496094 121.089844 97.75 120.84375 C 98.214844 120.390625 98.414062 119.625 98.21875 119.050781 C 98.167969 118.898438 96.40625 114.941406 94.300781 110.265625 C 90.71875 102.316406 90.445312 101.730469 90.1875 101.457031 C 89.734375 100.972656 89.035156 100.761719 88.40625 100.9375 C 88.292969 100.972656 87.78125 101.246094 87.265625 101.550781 C 80.191406 105.773438 72.492188 107.925781 64.425781 107.925781 C 51.109375 107.929688 38.628906 102.019531 30.164062 91.695312 C 25.796875 86.367188 22.621094 79.761719 21.21875 73.0625 C 20.597656 70.109375 20.34375 67.753906 20.296875 64.609375 C 20.242188 60.769531 20.542969 57.773438 21.332031 54.238281 C 24.46875 40.210938 34.488281 28.449219 47.90625 23.0625 C 52.484375 21.222656 57.058594 20.226562 62.144531 19.945312 C 63.628906 19.867188 66.613281 19.910156 68.046875 20.035156 C 73.613281 20.519531 78.632812 21.882812 83.582031 24.261719 C 85.757812 25.304688 88.367188 26.855469 90.230469 28.21875 C 90.910156 28.714844 91.171875 28.820312 91.691406 28.820312 C 92.007812 28.820312 92.1875 28.789062 92.402344 28.691406 C 92.753906 28.539062 93.171875 28.128906 93.324219 27.785156 C 93.382812 27.644531 94.417969 23.15625 95.617188 17.808594 C 97.984375 7.253906 97.882812 7.8125 97.628906 7.238281 C 97.355469 6.621094 96.722656 6.222656 93.746094 4.746094 C 90.078125 2.9375 86.609375 1.59375 82.621094 0.445312 C 81.109375 0.0117188 80.769531 -0.0273438 80.246094 0.175781 Z M 80.246094 0.175781 "/>
<path style=" stroke:none;fill-rule:nonzero;fill:rgb(0%,0%,0%);fill-opacity:1;" d="M 61.859375 25.480469 C 49.839844 26.285156 38.957031 32.570312 32.257812 42.578125 C 28.519531 48.175781 26.347656 54.554688 25.875 61.375 C 25.796875 62.507812 25.796875 65.328125 25.875 66.445312 C 26.183594 70.796875 27.113281 74.734375 28.761719 78.738281 C 29.214844 79.832031 30.410156 82.230469 31.015625 83.269531 C 35.734375 91.300781 43.171875 97.375 51.945312 100.351562 C 57.28125 102.164062 62.996094 102.785156 68.628906 102.171875 C 76.441406 101.320312 83.640625 98.175781 89.742188 92.945312 C 90.46875 92.320312 92.882812 89.914062 93.507812 89.1875 C 96.628906 85.5625 98.925781 81.703125 100.558594 77.351562 C 103.203125 70.304688 103.699219 62.488281 101.976562 55.136719 C 100.75 49.917969 98.480469 45.070312 95.226562 40.761719 C 93.351562 38.277344 90.921875 35.777344 88.496094 33.84375 C 82.242188 28.859375 74.835938 26.007812 66.746094 25.472656 C 65.753906 25.410156 62.878906 25.410156 61.859375 25.480469 Z M 67.738281 30.0625 C 72.289062 30.558594 76.082031 31.671875 79.96875 33.667969 C 86.386719 36.960938 91.542969 42.140625 94.796875 48.550781 C 97.242188 53.371094 98.46875 58.488281 98.46875 63.882812 C 98.46875 67.640625 97.902344 71.117188 96.71875 74.675781 C 94.011719 82.789062 88.339844 89.5625 80.746094 93.746094 C 76.945312 95.835938 72.691406 97.179688 68.214844 97.691406 C 65.527344 98 62.1875 97.949219 59.460938 97.550781 C 53.261719 96.652344 47.402344 94.039062 42.550781 90.007812 C 36.203125 84.738281 31.964844 77.265625 30.710938 69.152344 C 29.828125 63.453125 30.410156 57.511719 32.371094 52.222656 C 36.171875 41.914062 44.710938 34.0625 55.28125 31.132812 C 57.320312 30.570312 59.65625 30.164062 61.917969 29.988281 C 62.933594 29.910156 66.769531 29.953125 67.738281 30.0625 Z M 67.738281 30.0625 "/>
<path style=" stroke:none;fill-rule:nonzero;fill:rgb(0%,0%,0%);fill-opacity:1;" d="M 63.414062 34.023438 C 55.71875 34.320312 48.710938 37.34375 43.300781 42.691406 C 38.382812 47.558594 35.359375 53.84375 34.589844 60.808594 C 34.449219 62.125 34.449219 65.746094 34.589844 66.980469 C 35.03125 70.722656 35.929688 73.839844 37.484375 77.011719 C 38.578125 79.246094 39.828125 81.167969 41.472656 83.132812 C 42.242188 84.050781 44.191406 85.996094 45.109375 86.757812 C 49.902344 90.726562 55.285156 92.984375 61.523438 93.648438 C 62.820312 93.789062 66.035156 93.785156 67.285156 93.648438 C 72.410156 93.082031 76.734375 91.558594 80.796875 88.898438 C 82.609375 87.714844 83.96875 86.609375 85.558594 85.015625 C 88.945312 81.644531 91.300781 77.871094 92.796875 73.40625 C 93.542969 71.167969 93.960938 69.253906 94.238281 66.757812 C 94.332031 65.867188 94.367188 62.929688 94.292969 61.875 C 93.875 55.992188 91.835938 50.554688 88.300781 45.882812 C 85.277344 41.894531 81.300781 38.71875 76.769531 36.671875 C 73.261719 35.089844 69.714844 34.242188 65.730469 34.039062 C 64.65625 33.988281 64.339844 33.984375 63.414062 34.023438 Z M 59.902344 39.855469 C 60.144531 39.984375 60.160156 40.058594 60.167969 40.988281 L 60.167969 41.878906 L 60.019531 42.015625 L 59.867188 42.15625 L 52.195312 42.15625 L 52.058594 42.015625 C 51.902344 41.863281 51.871094 41.570312 51.996094 41.394531 C 52.085938 41.265625 53.792969 40.414062 54.714844 40.042969 L 55.335938 39.792969 L 57.554688 39.789062 C 59.144531 39.789062 59.816406 39.804688 59.902344 39.855469 Z M 74.226562 40.105469 C 75.296875 40.550781 76.757812 41.289062 76.832031 41.417969 C 76.933594 41.609375 76.898438 41.867188 76.746094 42.015625 L 76.613281 42.15625 L 68.183594 42.15625 L 68.046875 42.015625 C 67.910156 41.878906 67.90625 41.863281 67.90625 40.972656 C 67.90625 40.082031 67.910156 40.066406 68.046875 39.929688 L 68.183594 39.789062 L 73.460938 39.789062 Z M 57.855469 47.617188 L 58.019531 47.78125 L 58.019531 48.609375 C 58.019531 49.4375 57.984375 49.605469 57.800781 49.746094 C 57.667969 49.847656 45.601562 49.847656 45.472656 49.746094 C 45.285156 49.605469 45.25 49.4375 45.25 48.609375 L 45.25 47.78125 L 45.578125 47.453125 L 57.691406 47.453125 Z M 83.820312 47.589844 L 83.976562 47.722656 L 83.996094 48.601562 L 84.011719 49.480469 L 83.84375 49.652344 L 83.679688 49.820312 L 71.359375 49.820312 L 71.199219 49.683594 L 71.042969 49.550781 L 71.042969 47.722656 L 71.199219 47.589844 L 71.359375 47.453125 L 83.660156 47.453125 Z M 64.59375 48.546875 C 65.289062 50.632812 68.085938 55.125 72.296875 60.90625 C 73.160156 62.101562 73.425781 62.5625 73.746094 63.457031 C 74.367188 65.179688 74.515625 67.351562 74.121094 69.15625 C 73.425781 72.359375 71.085938 74.589844 67.5 75.464844 C 65.511719 75.949219 63.144531 75.9375 61.15625 75.429688 C 59.296875 74.957031 57.953125 74.222656 56.777344 73.046875 C 55.832031 72.097656 55.296875 71.226562 54.894531 69.996094 C 54.550781 68.953125 54.488281 68.453125 54.496094 66.898438 C 54.496094 65.335938 54.5625 64.894531 54.96875 63.683594 C 55.332031 62.597656 55.566406 62.175781 56.535156 60.839844 C 60.484375 55.410156 63.199219 51.09375 64.046875 48.917969 C 64.175781 48.589844 64.300781 48.230469 64.320312 48.113281 C 64.339844 47.996094 64.371094 47.902344 64.375 47.914062 C 64.386719 47.925781 64.480469 48.207031 64.59375 48.546875 Z M 54.183594 55.28125 L 54.347656 55.445312 L 54.347656 56.328125 C 54.347656 57.1875 54.339844 57.207031 54.207031 57.34375 L 54.070312 57.484375 L 39.371094 57.484375 L 39.234375 57.34375 C 39.097656 57.207031 39.09375 57.1875 39.09375 56.3125 C 39.09375 55.386719 39.109375 55.316406 39.347656 55.1875 C 39.425781 55.140625 41.578125 55.125 46.738281 55.117188 L 54.019531 55.117188 Z M 88.984375 55.28125 L 89.148438 55.445312 L 89.148438 56.328125 C 89.148438 57.1875 89.140625 57.207031 89.007812 57.34375 L 88.871094 57.484375 L 74.058594 57.484375 L 73.921875 57.34375 C 73.785156 57.207031 73.78125 57.1875 73.78125 56.328125 L 73.78125 55.445312 L 74.109375 55.117188 L 88.820312 55.117188 Z M 51.078125 62.945312 L 51.238281 63.109375 L 51.238281 63.996094 C 51.238281 64.851562 51.234375 64.875 51.097656 65.007812 L 50.964844 65.148438 L 36.585938 65.148438 L 36.457031 65.027344 C 36.332031 64.90625 36.324219 64.875 36.324219 63.996094 C 36.324219 63.054688 36.34375 62.980469 36.578125 62.851562 C 36.660156 62.804688 38.765625 62.789062 43.800781 62.78125 L 50.914062 62.78125 Z M 92.089844 62.945312 L 92.253906 63.109375 L 92.253906 63.996094 C 92.253906 64.851562 92.25 64.875 92.113281 65.007812 L 91.976562 65.148438 L 76.316406 65.148438 L 76.183594 65.007812 C 76.046875 64.875 76.042969 64.855469 76.042969 63.984375 C 76.046875 63.066406 76.0625 62.984375 76.296875 62.851562 C 76.378906 62.804688 78.4375 62.789062 84.164062 62.78125 L 91.925781 62.78125 Z M 51.839844 70.632812 C 51.96875 70.785156 51.972656 70.824219 51.972656 71.664062 C 51.972656 72.515625 51.96875 72.542969 51.832031 72.671875 L 51.699219 72.8125 L 39.863281 72.8125 L 39.730469 72.691406 C 39.609375 72.570312 39.601562 72.539062 39.601562 71.660156 C 39.601562 70.785156 39.609375 70.746094 39.730469 70.632812 C 39.800781 70.570312 39.894531 70.503906 39.941406 70.488281 C 39.988281 70.46875 42.652344 70.457031 45.863281 70.464844 L 51.703125 70.476562 Z M 89.253906 70.507812 C 89.351562 70.542969 89.457031 70.617188 89.488281 70.671875 C 89.519531 70.730469 89.542969 71.179688 89.542969 71.664062 C 89.542969 72.5 89.539062 72.5625 89.417969 72.683594 L 89.300781 72.8125 L 75.988281 72.8125 L 75.878906 72.667969 C 75.769531 72.53125 75.757812 72.441406 75.757812 71.628906 C 75.757812 70.785156 75.765625 70.746094 75.886719 70.632812 C 75.957031 70.570312 76.050781 70.503906 76.097656 70.488281 C 76.273438 70.425781 89.070312 70.449219 89.253906 70.507812 Z M 58.171875 78.292969 C 58.296875 78.410156 58.300781 78.445312 58.300781 79.316406 C 58.300781 80.164062 58.296875 80.226562 58.175781 80.347656 L 58.058594 80.480469 L 45.792969 80.480469 L 45.664062 80.355469 C 45.539062 80.238281 45.535156 80.203125 45.535156 79.328125 C 45.535156 78.484375 45.539062 78.421875 45.660156 78.296875 L 45.777344 78.167969 L 58.042969 78.167969 Z M 84 78.316406 C 84.109375 78.449219 84.121094 78.539062 84.121094 79.324219 C 84.121094 80.105469 84.109375 80.195312 84 80.332031 L 83.886719 80.480469 L 77.734375 80.480469 C 74.351562 80.480469 71.542969 80.460938 71.492188 80.445312 C 71.296875 80.367188 71.238281 80.117188 71.238281 79.324219 C 71.238281 78.550781 71.296875 78.28125 71.476562 78.207031 C 71.515625 78.191406 74.324219 78.175781 77.71875 78.175781 L 83.886719 78.167969 Z M 60.136719 85.972656 C 60.273438 86.105469 60.277344 86.132812 60.277344 86.984375 C 60.277344 87.824219 60.273438 87.863281 60.144531 88.015625 L 60.007812 88.171875 L 55.789062 88.171875 L 54.96875 87.84375 C 53.921875 87.421875 52.433594 86.707031 52.335938 86.578125 C 52.222656 86.429688 52.238281 86.148438 52.375 85.980469 L 52.488281 85.832031 L 60.003906 85.832031 Z M 76.417969 85.957031 C 76.59375 86.121094 76.59375 86.449219 76.417969 86.609375 C 76.253906 86.769531 74.882812 87.421875 73.835938 87.839844 L 73.019531 88.171875 L 68.257812 88.171875 L 68.109375 88.035156 C 67.960938 87.902344 67.960938 87.890625 67.960938 87.015625 C 67.960938 86.203125 67.972656 86.113281 68.082031 85.980469 L 68.195312 85.832031 L 76.289062 85.832031 Z M 76.417969 85.957031 "/>
<path style=" stroke:none;fill-rule:nonzero;fill:rgb(0%,0%,0%);fill-opacity:1;" d="M 64.320312 50.53125 C 64.257812 50.886719 63.796875 52.199219 63.492188 52.902344 C 62.652344 54.871094 61.753906 56.261719 59.5 59.074219 C 57.289062 61.832031 56.65625 62.867188 56.183594 64.5 C 55.730469 66.066406 55.738281 67.988281 56.195312 69.460938 C 57.09375 72.324219 59.640625 74.054688 63.472656 74.398438 C 65.273438 74.554688 67.414062 74.207031 68.949219 73.492188 C 71.085938 72.503906 72.339844 70.902344 72.804688 68.605469 C 72.945312 67.890625 72.945312 66.117188 72.796875 65.347656 C 72.574219 64.128906 72.050781 62.894531 71.296875 61.738281 C 70.785156 60.980469 70.503906 60.601562 69.046875 58.78125 C 67.371094 56.679688 66.574219 55.511719 65.816406 54.019531 C 65.320312 53.050781 64.894531 52.007812 64.601562 51.03125 C 64.488281 50.664062 64.390625 50.351562 64.378906 50.339844 C 64.371094 50.332031 64.339844 50.417969 64.320312 50.53125 Z M 64.320312 50.53125 "/>
</g>
</svg>
